<svg xmlns="http://www.w3.org/2000/svg" width="19.306" height="17.229" viewBox="0 0 19.306 17.229">
  <path id="camera" d="M19.306,6.557V17.633a1.829,1.829,0,0,1-1.81,1.846H1.81A1.829,1.829,0,0,1,0,17.633V6.557A1.829,1.829,0,0,1,1.81,4.711H5.128l.464-1.265a1.809,1.809,0,0,1,1.693-1.2h4.732a1.809,1.809,0,0,1,1.693,1.2l.468,1.265H17.5A1.829,1.829,0,0,1,19.306,6.557ZM14.178,12.1A4.574,4.574,0,0,0,9.653,7.48a4.616,4.616,0,0,0,0,9.23A4.574,4.574,0,0,0,14.178,12.1Zm-1.207,0A3.319,3.319,0,1,1,9.653,8.711,3.357,3.357,0,0,1,12.971,12.1Z" transform="translate(0 -2.25)" fill="#fff"/>
</svg>
